<?xml version="1.0" encoding="UTF-8" standalone="no"?><!DOCTYPE svg PUBLIC "-//W3C//DTD SVG 1.1//EN" "http://www.w3.org/Graphics/SVG/1.1/DTD/svg11.dtd"><svg width="100%" height="100%" viewBox="0 0 2158 1792" version="1.1" xmlns="http://www.w3.org/2000/svg" xmlns:xlink="http://www.w3.org/1999/xlink" xml:space="preserve" xmlns:serif="http://www.serif.com/" style="fill-rule:evenodd;clip-rule:evenodd;stroke-linecap:square;stroke-linejoin:round;stroke-miterlimit:1.5;"><g id="Ordinateur"><path id="Base" d="M1590.584,1623.065l0,112.207c0,30.964 -25.139,56.104 -56.104,56.104l-911.436,0c-30.964,0 -56.104,-25.139 -56.104,-56.104l0,-112.207c0,-30.964 25.139,-56.104 56.104,-56.104l911.436,0c30.964,0 56.104,25.139 56.104,56.104Z" style="fill:url(#_Linear1);"/><rect id="Pied" x="779.544" y="1074.825" width="598.438" height="604.343" style="fill:url(#_Linear2);"/><path id="Ecran" d="M2157.525,315.951l0,631.903c0,174.378 -141.573,315.951 -315.951,315.951l-1525.622,0c-174.378,0 -315.951,-141.573 -315.951,-315.951l0,-631.903c0,-174.378 141.573,-315.951 315.951,-315.951l1525.622,0c174.378,0 315.951,141.573 315.951,315.951Z" style="fill:#ebebeb;"/></g><g id="Barrière"><path d="M1252.52,706.811l0,406.733c0,11.21 -9.101,20.311 -20.311,20.311l-40.623,0c-11.21,0 -20.311,-9.101 -20.311,-20.311l0,-406.733c0,-11.21 9.101,-20.311 20.311,-20.311l40.623,0c11.21,0 20.311,9.101 20.311,20.311Z" style="fill:#715050;"/><path d="M1802.612,706.811l0,406.733c0,11.21 -9.101,20.311 -20.311,20.311l-40.623,0c-11.21,0 -20.311,-9.101 -20.311,-20.311l0,-406.733c0,-11.21 9.101,-20.311 20.311,-20.311l40.623,0c11.21,0 20.311,9.101 20.311,20.311Z" style="fill:#715050;"/><g id="Lame2"><path d="M1913.643,875.99l21.123,-0c9.792,0 18.44,4.934 23.592,12.45l-101.879,101.879l-57.165,0l114.329,-114.329Z" style="fill:#0c0c0c;"/><path d="M1658.437,875.99l99.02,0l-114.329,114.329l-99.02,0l114.329,-114.329Z" style="fill:#a90402;"/><path d="M1030.759,977.753c-3.1,-4.57 -4.912,-10.083 -4.912,-16.016l0,-57.165c0,-15.775 12.807,-28.582 28.582,-28.582l78.093,0l-101.763,101.763Z" style="fill:#a90402;"/><path d="M1502.252,875.99l99.02,0l-114.329,114.329l-99.02,-0l114.329,-114.329Z" style="fill:#a90402;"/><path d="M1757.458,875.99l57.165,0l-114.329,114.329l-57.165,0l114.329,-114.329Z" style="fill:#0c0c0c;"/><path d="M1433.875,875.99l68.377,0l-114.329,114.329l-68.377,0l114.329,-114.329Z" style="fill:#0c0c0c;"/><path d="M1132.523,875.99l46.147,-0l-114.329,114.329l-9.91,0c-9.842,0 -18.529,-4.985 -23.671,-12.566l101.763,-101.763Z" style="fill:#0c0c0c;"/><path d="M1814.623,875.99l99.02,0l-114.329,114.329l-99.02,-0l114.329,-114.329Z" style="fill:#a90402;"/><path d="M1334.855,875.99l99.02,0l-114.329,114.329l-99.02,0l114.329,-114.329Z" style="fill:#a90402;"/><path d="M1601.273,875.99l57.165,0l-114.329,114.329l-57.165,0l114.329,-114.329Z" style="fill:#0c0c0c;"/><path d="M1277.69,875.99l57.165,0l-114.329,114.329l-57.165,0l114.329,-114.329Z" style="fill:#0c0c0c;"/><path d="M1178.67,875.99l99.02,0l-114.329,114.329l-99.02,-0l114.329,-114.329Z" style="fill:#a90402;"/><path d="M1958.358,888.44c3.148,4.593 4.99,10.149 4.99,16.132l0,57.165c0,15.775 -12.807,28.582 -28.582,28.582l-78.287,0l101.879,-101.879Z" style="fill:#a90402;"/><path d="M1963.348,904.572l0,57.165c0,15.775 -12.807,28.582 -28.582,28.582l-880.335,0c-15.775,0 -28.582,-12.807 -28.582,-28.582l0,-57.165c0,-15.775 12.807,-28.582 28.582,-28.582l880.335,0c15.775,0 28.582,12.807 28.582,28.582Z" style="fill:none;stroke:#715050;stroke-width:3.13px;"/></g><g id="Lame1"><path d="M1913.643,717.217l21.123,-0c9.792,0 18.44,4.934 23.592,12.45l-101.879,101.879l-57.165,0l114.329,-114.329Z" style="fill:#0c0c0c;"/><path d="M1658.437,717.217l99.02,0l-114.329,114.329l-99.02,0l114.329,-114.329Z" style="fill:#a90402;"/><path d="M1030.759,818.98c-3.1,-4.57 -4.912,-10.083 -4.912,-16.016l0,-57.165c0,-15.775 12.807,-28.582 28.582,-28.582l78.093,0l-101.763,101.763Z" style="fill:#a90402;"/><path d="M1502.252,717.217l99.02,0l-114.329,114.329l-99.02,-0l114.329,-114.329Z" style="fill:#a90402;"/><path d="M1757.458,717.217l57.165,0l-114.329,114.329l-57.165,0l114.329,-114.329Z" style="fill:#0c0c0c;"/><path d="M1433.875,717.217l68.377,0l-114.329,114.329l-68.377,0l114.329,-114.329Z" style="fill:#0c0c0c;"/><path d="M1132.523,717.217l46.147,-0l-114.329,114.329l-9.91,0c-9.842,0 -18.529,-4.985 -23.671,-12.566l101.763,-101.763Z" style="fill:#0c0c0c;"/><path d="M1814.623,717.217l99.02,0l-114.329,114.329l-99.02,-0l114.329,-114.329Z" style="fill:#a90402;"/><path d="M1334.855,717.217l99.02,0l-114.329,114.329l-99.02,0l114.329,-114.329Z" style="fill:#a90402;"/><path d="M1601.273,717.217l57.165,0l-114.329,114.329l-57.165,0l114.329,-114.329Z" style="fill:#0c0c0c;"/><path d="M1277.69,717.217l57.165,0l-114.329,114.329l-57.165,0l114.329,-114.329Z" style="fill:#0c0c0c;"/><path d="M1178.67,717.217l99.02,0l-114.329,114.329l-99.02,-0l114.329,-114.329Z" style="fill:#a90402;"/><path d="M1958.358,729.667c3.148,4.593 4.99,10.149 4.99,16.132l0,57.165c0,15.775 -12.807,28.582 -28.582,28.582l-78.287,0l101.879,-101.879Z" style="fill:#a90402;"/><path d="M1963.348,745.799l0,57.165c0,15.775 -12.807,28.582 -28.582,28.582l-880.335,0c-15.775,0 -28.582,-12.807 -28.582,-28.582l0,-57.165c0,-15.775 12.807,-28.582 28.582,-28.582l880.335,0c15.775,0 28.582,12.807 28.582,28.582Z" style="fill:none;stroke:#715050;stroke-width:3.13px;"/></g></g><path d="M608.574,135.334l17.222,69.778c19.93,4.67 39.233,11.696 57.501,20.929l58.046,-42.383c23.478,15.02 44.917,33.01 63.786,53.523l-31.66,64.524c12.265,16.388 22.536,34.178 30.596,52.994l71.709,4.844c8.331,26.597 13.191,54.159 14.459,82.001l-65.728,29.078c-1.139,20.438 -4.706,40.667 -10.626,60.262l51.819,49.804c-10.715,25.729 -24.708,49.967 -41.633,72.111l-69.041,-19.974c-14.009,14.924 -29.745,28.128 -46.876,39.333l7.682,71.461c-24.747,12.823 -51.046,22.395 -78.245,28.479l-40.049,-59.68c-20.325,2.428 -40.867,2.428 -61.192,0l-40.049,59.68c-27.199,-6.084 -53.498,-15.656 -78.245,-28.479l7.682,-71.461c-17.13,-11.205 -32.866,-24.409 -46.876,-39.333l-69.041,19.974c-16.925,-22.144 -30.919,-46.381 -41.633,-72.111l51.819,-49.804c-5.92,-19.595 -9.487,-39.824 -10.626,-60.262l-65.728,-29.078c1.269,-27.842 6.128,-55.404 14.459,-82.001l71.709,-4.844c8.06,-18.816 18.331,-36.606 30.596,-52.994l-31.66,-64.524c18.869,-20.513 40.308,-38.503 63.786,-53.523l58.046,42.383c18.269,-9.233 37.572,-16.259 57.501,-20.929l17.222,-69.778c27.64,-3.586 55.627,-3.586 83.266,0Zm-41.633,221.866c54.68,0 99.073,44.393 99.073,99.073c0,54.68 -44.393,99.073 -99.073,99.073c-54.68,0 -99.073,-44.393 -99.073,-99.073c0,-54.68 44.393,-99.073 99.073,-99.073Z" style="fill:#ebebeb;stroke:#a90402;stroke-width:31.25px;stroke-linecap:round;"/><g id="Cone"><path d="M481.91,1755.632l0,23.829c0,6.576 -5.339,11.915 -11.915,11.915l-389.643,0c-6.576,0 -11.915,-5.339 -11.915,-11.915l0,-23.829c0,-6.576 5.339,-11.915 11.915,-11.915l389.643,0c6.576,0 11.915,5.339 11.915,11.915Z" style="fill:url(#_Linear3);"/><path d="M196.266,1530.725l14.29,-47.634l129.237,0l14.29,47.634l-157.817,0Z" style="fill:#a90402;"/><path d="M153.424,1673.531l14.29,-47.634l214.921,0l14.29,47.634l-243.501,0Z" style="fill:#a90402;"/><path d="M167.714,1625.897l28.552,-95.172l157.817,0l28.552,95.172l-214.921,0Z" style="fill:url(#_Linear4);"/><path d="M210.556,1483.091l36.057,-120.19l57.123,0l36.057,120.19l-129.237,0Z" style="fill:url(#_Linear5);"/><path d="M396.925,1673.531l21.056,70.186l-285.613,0l21.056,-70.186l243.501,0Z" style="fill:url(#_Linear6);"/></g><defs><linearGradient id="_Linear1" x1="0" y1="0" x2="1" y2="0" gradientUnits="userSpaceOnUse" gradientTransform="matrix(0,-224.414062,224.414063,0,1078.762336,1791.375411)"><stop offset="0" style="stop-color:#ebebeb;stop-opacity:1"/><stop offset="0.67" style="stop-color:#cdcdcd;stop-opacity:1"/><stop offset="0.85" style="stop-color:#777;stop-opacity:1"/><stop offset="1" style="stop-color:#0c0c0c;stop-opacity:1"/></linearGradient><linearGradient id="_Linear2" x1="0" y1="0" x2="1" y2="0" gradientUnits="userSpaceOnUse" gradientTransform="matrix(0,-1089.976008,994.114926,0,1078.762336,1679.16838)"><stop offset="0" style="stop-color:#e4e4e4;stop-opacity:1"/><stop offset="1" style="stop-color:#a3a3a3;stop-opacity:1"/></linearGradient><linearGradient id="_Linear3" x1="0" y1="0" x2="1" y2="0" gradientUnits="userSpaceOnUse" gradientTransform="matrix(0,-85.954907,686.852974,0,275.174107,1791.375411)"><stop offset="0" style="stop-color:#e4e4e4;stop-opacity:1"/><stop offset="1" style="stop-color:#a3a3a3;stop-opacity:1"/></linearGradient><linearGradient id="_Linear4" x1="0" y1="0" x2="1" y2="0" gradientUnits="userSpaceOnUse" gradientTransform="matrix(0,-686.830308,474.455147,0,275.174107,1743.717245)"><stop offset="0" style="stop-color:#e4e4e4;stop-opacity:1"/><stop offset="1" style="stop-color:#a3a3a3;stop-opacity:1"/></linearGradient><linearGradient id="_Linear5" x1="0" y1="0" x2="1" y2="0" gradientUnits="userSpaceOnUse" gradientTransform="matrix(0,-686.830308,474.455147,0,275.174107,1743.717245)"><stop offset="0" style="stop-color:#e4e4e4;stop-opacity:1"/><stop offset="1" style="stop-color:#a3a3a3;stop-opacity:1"/></linearGradient><linearGradient id="_Linear6" x1="0" y1="0" x2="1" y2="0" gradientUnits="userSpaceOnUse" gradientTransform="matrix(0,-686.830308,474.455147,0,275.174107,1743.717245)"><stop offset="0" style="stop-color:#e4e4e4;stop-opacity:1"/><stop offset="1" style="stop-color:#a3a3a3;stop-opacity:1"/></linearGradient></defs></svg>